<?xml version="1.0" encoding="UTF-8" standalone="no"?>
<!-- Created with Inkscape (http://www.inkscape.org/) -->

<svg
   xmlns:dc="http://purl.org/dc/elements/1.1/"
   xmlns:cc="http://creativecommons.org/ns#"
   xmlns:rdf="http://www.w3.org/1999/02/22-rdf-syntax-ns#"
   xmlns:svg="http://www.w3.org/2000/svg"
   xmlns="http://www.w3.org/2000/svg"
   xmlns:xlink="http://www.w3.org/1999/xlink"
   version="1.1"
   width="10"
   height="10"
   id="svg3131">
  <defs
     id="defs3133">
    <radialGradient
       cx="91"
       cy="170"
       r="18"
       fx="91"
       fy="170"
       id="radialGradient4094"
       xlink:href="#linearGradient3939"
       gradientUnits="userSpaceOnUse" />
    <linearGradient
       id="linearGradient3939">
      <stop
         id="stop3941"
         style="stop-color:#dfdfdf;stop-opacity:1"
         offset="0" />
      <stop
         id="stop3995"
         style="stop-color:#b7b7b7;stop-opacity:1"
         offset="0.16259436" />
      <stop
         id="stop3993"
         style="stop-color:#8f8f8f;stop-opacity:1"
         offset="0.18294765" />
      <stop
         id="stop3953"
         style="stop-color:#afafaf;stop-opacity:1"
         offset="0.48146242" />
      <stop
         id="stop3951"
         style="stop-color:#cacaca;stop-opacity:1"
         offset="0.51197612" />
      <stop
         id="stop3949"
         style="stop-color:#ffffff;stop-opacity:1"
         offset="0.66415274" />
      <stop
         id="stop3943"
         style="stop-color:#443e3e;stop-opacity:1"
         offset="1" />
    </linearGradient>
    <radialGradient
       cx="91"
       cy="170"
       r="18"
       fx="91"
       fy="170"
       id="radialGradient3161"
       xlink:href="#linearGradient3939"
       gradientUnits="userSpaceOnUse"
       gradientTransform="matrix(0.27922466,0,0,0.27922466,-25.408949,1004.8935)" />
  </defs>
  <metadata
     id="metadata3136">
    <rdf:RDF>
      <cc:Work
         rdf:about="">
        <dc:format>image/svg+xml</dc:format>
        <dc:type
           rdf:resource="http://purl.org/dc/dcmitype/StillImage" />
        <dc:title></dc:title>
      </cc:Work>
    </rdf:RDF>
  </metadata>
  <g
     transform="translate(0,-1042.3622)"
     id="layer1">
    <path
       d="m 288.57142,293.07648 a 12.142858,12.142858 0 1 1 -24.28572,0 12.142858,12.142858 0 1 1 24.28572,0 z"
       transform="matrix(0.02252889,0,0,0.02252889,250.25042,317.53598)"
       id="path3139"
       style="fill:#333333;fill-opacity:1;stroke:none" />
    <g
       id="g3995">
      <path
         d="m 0,6.90625 c -0.13807119,0 -0.25,0.1119021 -0.25,0.25 0,0.137999 0.11192881,0.25 0.25,0.25 0.13807122,0 0.25,-0.112001 0.25,-0.25 0,-0.1380979 -0.11192878,-0.25 -0.25,-0.25 z m -1.375,0.375 c -0.0618,-0.016559 -0.1277134,-0.00327 -0.1875,0.03125 -0.1195732,0.069036 -0.1627495,0.2242394 -0.09375,0.34375 0.069049,0.1195963 0.2241768,0.1627856 0.34375,0.09375 0.1195732,-0.069036 0.162799,-0.2241537 0.09375,-0.34375 -0.0345,-0.059755 -0.09445,-0.108441 -0.15625,-0.125 z m 2.75,0 c -0.061807,0.01657 -0.1217255,0.065202 -0.15625,0.125 C 1.1497505,7.5257606 1.1929268,7.6809644 1.3125,7.75 1.4320732,7.8190356 1.5872505,7.7757606 1.65625,7.65625 1.725299,7.5366537 1.6820732,7.3815356 1.5625,7.3125 1.5027134,7.2779822 1.4368065,7.2646802 1.375,7.28125 z m -3.90625,1.0625 c -0.0618,0.01656 -0.1217322,0.033963 -0.15625,0.09375 -0.069036,0.1195732 -0.025761,0.2747505 0.09375,0.34375 0.1195963,0.069049 0.2747144,0.025823 0.34375,-0.09375 0.069036,-0.1195732 0.025846,-0.274701 -0.09375,-0.34375 -0.059755,-0.0345 -0.1256999,-0.01656 -0.1875,0 z m 4.875,0 C 2.2242394,8.4127495 2.1809644,8.5679268 2.25,8.6875 2.3190356,8.8070732 2.4742394,8.8502495 2.59375,8.78125 2.7133463,8.712201 2.7565356,8.5570732 2.6875,8.4375 2.6184644,8.3179268 2.4633463,8.274701 2.34375,8.34375 z M -2.84375,9.75 c -0.137999,0 -0.25,0.1119288 -0.25,0.25 0,0.138071 0.112001,0.25 0.25,0.25 0.1380979,0 0.25,-0.111929 0.25,-0.25 0,-0.1380712 -0.1119021,-0.25 -0.25,-0.25 z m 5.6875,0 c -0.137999,0 -0.25,0.1119288 -0.25,0.25 0,0.138071 0.112001,0.25 0.25,0.25 0.1380979,0 0.25,-0.111929 0.25,-0.25 0,-0.1380712 -0.1119021,-0.25 -0.25,-0.25 z m -5.25,1.4375 c -0.061811,-0.01655 -0.1277018,-0.0033 -0.1875,0.03125 -0.1195106,0.069 -0.1627856,0.224177 -0.09375,0.34375 0.069036,0.119573 0.2242394,0.162749 0.34375,0.09375 0.1195963,-0.06905 0.1627856,-0.224177 0.09375,-0.34375 -0.034518,-0.05979 -0.094439,-0.108447 -0.15625,-0.125 z m 4.8125,0 c -0.0618,0.01656 -0.1217322,0.06521 -0.15625,0.125 -0.069036,0.119573 -0.025761,0.274751 0.09375,0.34375 0.1195963,0.06905 0.2747144,0.02582 0.34375,-0.09375 0.069036,-0.119573 0.025846,-0.274701 -0.09375,-0.34375 -0.059755,-0.0345 -0.1256999,-0.04781 -0.1875,-0.03125 z M -1.5,12.21875 c -0.061807,0.01657 -0.1217255,0.0652 -0.15625,0.125 -0.069,0.119511 -0.025823,0.274714 0.09375,0.34375 0.1195732,0.06904 0.2747505,0.02576 0.34375,-0.09375 0.069049,-0.119596 0.025823,-0.274714 -0.09375,-0.34375 -0.059787,-0.03452 -0.1256935,-0.04782 -0.1875,-0.03125 z m 3,0 c -0.0618,-0.01656 -0.1277134,-0.0033 -0.1875,0.03125 -0.1195732,0.06904 -0.1627495,0.224239 -0.09375,0.34375 0.069049,0.119596 0.2241768,0.162786 0.34375,0.09375 0.1195732,-0.06904 0.162799,-0.224154 0.09375,-0.34375 -0.0345,-0.05975 -0.09445,-0.108441 -0.15625,-0.125 z m -1.5,0.375 c -0.13807119,0 -0.25,0.111902 -0.25,0.25 0,0.137999 0.11192881,0.25 0.25,0.25 0.13807122,0 0.25,-0.112001 0.25,-0.25 0,-0.138098 -0.11192878,-0.25 -0.25,-0.25 z"
         transform="translate(0,1042.3622)"
         id="path3190"
         style="fill:#333333;fill-opacity:1;stroke:none" />
    </g>
  </g>
</svg>
