<?xml version="1.0" encoding="UTF-8" standalone="no"?>
<!-- Created with Inkscape (http://www.inkscape.org/) -->

<svg
	xmlns:dc="http://purl.org/dc/elements/1.1/"
	xmlns:cc="http://creativecommons.org/ns#"
	xmlns:rdf="http://www.w3.org/1999/02/22-rdf-syntax-ns#"
	xmlns:svg="http://www.w3.org/2000/svg"
	xmlns="http://www.w3.org/2000/svg"
	version="1.1"
	width="559.53503"
	height="455.22458"
	viewBox="0 0 559.53501 455.22457"
	id="Layer_1"
	xml:space="preserve"><metadata
	id="metadata103"><rdf:RDF><cc:Work
	rdf:about=""><dc:format>image/svg+xml</dc:format><dc:type
	rdf:resource="http://purl.org/dc/dcmitype/StillImage" /><dc:title></dc:title></cc:Work></rdf:RDF></metadata><defs
	id="defs101" /><g
	transform="translate(-96.317924,-85.615932)"
	id="Troll"><path
	d="m 655.85291,257.94593 c 0,6.42 0,12.83 0,19.25 -0.28,5.77 -0.4,10.89 -1.79,15.55 -1.28,4.28 -3.551,8.12 -5.82,11.53 -7.1,10.65 -14.771,19.7 -23.17,28.87 -1.37,1.5 -3.09,2.77 -4.47,4.25 -6.931,7.41 -12.891,15.64 -18.131,25.18 -4.22,7.68 -7.359,15.59 -11.97,22.72 -4.56,7.04 -9.76,13.08 -15.45,19.24 -2.689,2.92 -5.8,5.7 -8.72,8.62 -2.87,2.87 -5.96,5.67 -8.96,8.39 -6.16,5.601 -12.49,10.83 -19.36,15.33 -6.93,4.55 -14.22,8.96 -21.58999,13.101 -14.88,8.35 -29.72,16.319 -46.22,23.159 -32.69,13.561 -62.17,30.62 -95.01,43.761 -2.04,0.819 -4.18,1.62 -6.37,2.35 -2.32,0.76 -4.59,1.15 -7.17,1.45 -4.87,0.57 -9.79001,1.68 -14.66001,2.689 -19.41,3.99 -37.12,9.03 -56.28,13.091 -9.59,2.029 -19.71,3.39 -30.78,3.92 -10.94,0.52 -22.44999,0.439 -34.24,0.439 -11.52,0 -23.13,-0.09 -34.13,-0.56 -11.44,-0.48 -20.6,-2.16 -28.76,-5.93 -3.95,-1.82 -7.77,-3.811 -11.41,-5.931 -3.7,-2.149 -7.36,-4.29 -10.52,-6.819 -6.15,-4.94 -11.68,-11.711 -16,-18.69 -2.3,-3.71 -4.53,-7.21 -6.05,-11.3 -1.50999,-4.11 -1.96,-9.69 -1.67,-15.67 0.52,-11.17 1.44,-21.181 2.12,-32.57 1.34,-22.17 1.68,-45.08 1.68,-67.7 0,-11.68 0.35,-23.39 -0.22,-34.24 -0.62,-11.55 -2.3,-20.2 -6.27,-28.42 -3.8,-7.87 -7.96,-15.14 -11.64,-23.05 -3.389995,-7.31 -6.259995,-15.08 -6.489995,-25.33 0,-0.96 0,-1.91 0,-2.87 0,-5.67 0,-11.34 0,-17.01 0.09,-0.03 0.13,-0.1 0.11,-0.23 -0.75,-20.38 6.699995,-32.19 16.569995,-41.85 2.55,-2.5 5.44,-4.32 8.16,-6.38 2.8,-2.11 5.3,-4.52 7.5,-7.16 4.59,-5.51 6.93,-12.4 8.17,-21.15 0.68,-4.76 0.3,-9.43 1.34,-13.2 1.01,-3.65 2.95,-6.57 5.15,-9.52 4.07,-5.45 9.31,-10.17 14.88,-14.43 10.87,-8.32 23.31,-15.85 36.93,-21.6 13.81,-5.83 29.39001,-9.599998 46.11,-12.419998 16.46,-2.78 33.81,-5.39 51.36,-7.16 35.82,-3.61 74.61001,-3.19 113.02,-4.03 19.51101,0 39.021,0 58.53,0 15.73,0.22 30.37,0.1 44.76,0.78 7.23,0.34 14.24,1.01 19.69,3.14 5.14,2 9.979,5.26 14.22,8.5 8.59,6.579998 16.82,13.789998 23.38,22.159998 6.55,8.34 12.3,17.7 17.8,27.64 5.58,10.1 9.91,20.69 15.891,29.65 6.09,9.13 13.53,16.18 21.71,23.73 7.68,7.08 15.32,14.92 22.149,23.38 3.181,3.94 6.771,8.8 8.96,13.77 2.351,5.34 2.991,12.21 3.131,19.58 z m -21.26,43.31 c 7.16,-11.46 15.811,-30.38 10.07,-49.02 -2.34,-7.59 -6.91999,-13.94 -11.41999,-19.91 -4.59001,-6.11 -9.28,-11.74 -14.54,-16.79 -2.71,-2.6 -5.59,-5.25 -9.07,-6.6 -9.26,-3.61 -22.01,-4.5 -33.46,-5.71 -2.27,-0.24 -4.66,-0.12 -6.819,-1.01 6.72,-0.65 15.55,-0.54 22.71,-0.89 2.18,-0.11 6,-0.09 6.489,-1.46 0.57,-1.56 -2.689,-4.21 -3.689,-5.37 -1.49,-1.72 -2.62,-3.58 -3.69,-5.26 -7.029,-11.04 -12.439,-24.12 -18.58,-35.36 -4.26,-7.79 -8.71,-15.47 -13.76,-22.16 -5.18,-6.86 -11.08,-12.67 -17.57,-18.35 -3.02,-2.64 -6.42,-5.47 -10.18,-7.72 -3.82,-2.28 -7.7,-4.42 -12.42,-5.59 -9.96,-2.489998 -21.54,-1.849998 -33.58,-2.349998 -11.42,-0.49 -23.479,0.34 -35.689,-0.23 -5.71,-0.26 -11.9,-0.11 -17.91,-0.11 -5.88,0 -12.95,-0.14 -18.351,0.11 -6.71,0.31 -13.54,-0.09 -20.37,0.23 -3.35,0.15 -6.8,0.11 -10.18,0.11 -16.79,0 -33.54,0.8 -49.91,1.56 -19.38,0.909998 -38.99,2.189998 -57.41,4.369998 -5.96,0.71 -12.61,1.35 -17.34,3.24 -0.87,0.35 -1.73,0.45 -2.13,1.68 2.79,1.44 6.23,1.19 9.52,1.35 3.54,0.16 7.23,-0.12 10.74,-0.12 7.13,0 14.41,-0.41 21.04,-0.78 13.94,-0.78 27.72,-1.67 40.84,-2.8 6.46,-0.55 12.84,-1.58 19.36,-2.35 6.58,-0.77 13.24,-1.31 20.14,-1.68 13.65,-0.71 28.13,-0.9 41.63,0.9 12.739,1.69 23.979,4.78 34.909,8.62 10.811,3.78 20.99,8.04 30.33,13.31 13.94,7.87 27.41,16.33 40.061,25.4 3.13999,2.25 6.38,4.59 9.18,7.17 0.81099,0.74 2.271,1.59 2.01,3.02 -3.18001,-0.7 -5.75,-2.7 -8.279,-4.37 -2.58,-1.7 -5.051,-3.49 -7.5,-5.26 -14.891,-10.79 -30.94,-19.41 -48.561,-27.64 -22.819,-10.65 -48.38,-20.01 -82.359,-18.57 -16.141,0.68 -31.43,2.32 -46.78,4.03 -15.16,1.68 -30.54,3.55 -47,3.8 -8.46,0.13 -16.82,0.15 -25.06,-0.11 -16.39,-0.52 -33.99,-1.21 -48.35,1.34 -7.2,1.28 -12.97,3.67 -19.13,6.27 -5.88,2.48 -11.5,5.33 -17.01,8.39 -5.41,3 -10.86,6 -15.89,9.51 -4.88,3.41 -10.01,7.01 -13.88,11.53 -3.82,4.45 -6.4,10.92 -6.71,18.69 -0.34,8.47 -2.07,15.11 -4.81,20.59 -4.16,8.29 -11.18,14.31 -17.91,20.14 -4.5,3.89 -8.91,8.31 -12.31,13.09 -1.85,2.6 -2.84,5.46 -3.69,9.07 -3.14,13.37 -3.34,33.3 1.01,45.32 6.73,18.62 19.66,31.52 20.92,55.28 0.43,8.04 0.34,16.45 0.34,25.06 0,33.98 0.5,67.6 -2.24,99.15 -0.69,7.93 -2.07,16.42 -1.23,23.72 0.4,3.53 1.53,6.82 3.02,9.63 4.52,8.51 9.9,15.38 16.56,21.59 4.37,4.08 9.73,7.141 15.44,9.96 5.8,2.87 11.63,5.41 18.13,7.28 6.5,1.86 13.91,2.82 22.38,3.02 17,0.41 33.47,0.061 49.24,-1.34 15.4,-1.38 29.49,-4.439 42.97,-7.84 13.27,-3.34 26.75,-6.87 40.62,-10.18 6.99,-1.66 14.06,-3.37 21.04,-4.36 6.97,-0.99 13.21,-3.729 19.25,-6.16 23.8,-9.55 46.06,-21.66 69.27,-32.34 11.92,-5.49 23.891,-10.01 35.13,-15.67 11.271,-5.66 22.221,-11.57 33.021,-17.79 10.64,-6.13 21.189,-12.61 30.1,-20.7 13.391,-12.17 26.94,-24 36.141,-40.06 3.079,-5.37 5.479,-11.21 8.51,-16.9 2.95,-5.55 6.069,-10.86 9.62,-15.78 2.689,-3.72 5.8,-7.05 8.729,-10.4 0.93,-1.07 2.4,-2.13 2.351,-3.81 -3.601,-0.19 -6.561,2.38 -10.41,1.57 0.7,-1.77 2.6,-2.76 4.14,-3.58 5.271,-2.82 11.07,-4.56 15.67,-7.84 5.876,-4.18 10.536,-10.37 14.546,-16.78 z"
	id="path5" /><path
	d="m 422.12476,97.3125 c -3.1778,-0.0037 -6.3,0.03125 -9,0.15625 -6.71,0.31 -13.545,-0.07 -20.375,0.25 -3.35,0.15 -6.7762,0.09375 -10.1562,0.09375 -16.7901,0 -33.5675,0.8025 -49.9376,1.5625 -19.38,0.91 -38.9862,2.195 -57.4062,4.375 -5.96,0.71 -12.6137,1.36 -17.3438,3.25 l -36.25,6.93755 c -7.2,1.28 -12.9649,3.65 -19.125,6.25 -5.88,2.48 -11.4899,5.34625 -17,8.40625 -5.41,3 -10.8762,5.99 -15.9062,9.5 -4.88,3.41 -10.005,7.01125 -13.875,11.53125 -3.82,4.45 -6.4087,10.9175 -6.7188,18.6875 -0.34,8.47 -2.0724,15.11375 -4.8124,20.59375 -4.1601,8.29 -11.1763,14.295 -17.9063,20.125 -4.5,3.89 -8.9125,8.31375 -12.3125,13.09375 -1.85,2.6 -2.8375,5.48375 -3.6875,9.09375 -3.14,13.37 -3.3188,33.2925 1.0313,45.3125 6.73,18.62 19.6462,31.52125 20.9062,55.28125 0.43,8.04 0.3438,16.4525 0.3438,25.0625 0,33.98 0.49,67.60525 -2.25,99.15625 -0.6901,7.93 -2.0588,16.41875 -1.2188,23.71875 0.4,3.53 1.5412,6.815 3.0312,9.625 4.5201,8.51 9.8713,15.38375 16.5313,21.59375 4.37,4.08 9.7587,7.1185 15.4687,9.9375 5.8001,2.87 11.625,5.41125 18.125,7.28125 6.5001,1.861 13.905,2.83225 22.375,3.03125 17.0001,0.41 33.48,0.0562 49.25,-1.34375 15.4001,-1.38 29.4888,-4.44375 42.9688,-7.84375 13.27,-3.34 26.7237,-6.8775 40.5938,-10.1875 6.99,-1.66 14.0824,-3.35375 21.0624,-4.34375 6.9701,-0.99 13.209,-3.72525 19.25,-6.15625 23.8001,-9.55 46.04,-21.66375 69.25,-32.34375 11.9201,-5.49 23.886,-10.0275 35.125,-15.6875 11.2711,-5.66 22.2313,-11.56125 33.0313,-17.78125 10.64,-6.13 21.1837,-12.5975 30.0937,-20.6875 13.3911,-12.17 26.9563,-24.0025 36.1563,-40.0625 3.079,-5.37 5.47,-11.21625 8.5,-16.90625 2.95,-5.55 6.074,-10.86125 9.625,-15.78125 2.689,-3.72 5.7887,-7.05625 8.7187,-10.40625 0.9301,-1.07 2.4251,-2.1325 2.375,-3.8125 -3.6,-0.19 -6.5874,2.40375 -10.4374,1.59375 0.701,-1.77 2.6162,-2.77375 4.1562,-3.59375 5.271,-2.82 11.0562,-4.56375 15.6562,-7.84375 5.8801,-4.18 10.5525,-10.37125 14.5626,-16.78125 7.16,-11.46 15.8025,-30.36 10.0624,-49 -2.34,-7.59 -6.9022,-13.9675 -11.4062,-19.9375 -4.59,-6.11 -9.3025,-11.73125 -14.5625,-16.78125 -2.71,-2.6 -5.5825,-5.24375 -9.0625,-6.59375 -9.26,-3.61 -22.0187,-4.50875 -33.4688,-5.71875 -2.269,-0.24 -4.6534,-0.11 -6.8124,-1 6.72,-0.65 15.5587,-0.55625 22.7187,-0.90625 2.179,-0.11 6.011,-0.0675 6.5,-1.4375 0.571,-1.56 -2.6875,-4.215 -3.6875,-5.375 -1.49,-1.72 -2.6487,-3.57 -3.7188,-5.25 -7.029,-11.04 -12.4214,-24.135 -18.5624,-35.375 -4.2601,-7.79 -8.7,-15.46625 -13.75,-22.15625 -5.1791,-6.86 -11.1038,-12.66375 -17.5938,-18.34375 -3.02,-2.64 -6.3962,-5.46875 -10.1562,-7.71875 -3.8201,-2.28 -7.7175,-4.42375 -12.4376,-5.59375 -9.96,-2.489998 -21.5224,-1.84375 -33.5624,-2.34375 -11.4191,-0.49 -23.4775,0.32 -35.6876,-0.25 -5.71,-0.26 -11.9274,-0.09375 -17.9374,-0.09375 -2.9401,0 -6.166,-0.05875 -9.3438,-0.0625 z"
	id="path3168"
	style="fill:#ffffff" /><path
	d="m 629.22291,252.01593 c 0.131,9.01 0.131,16.77 -0.68,25.18 -0.76,7.97 -1.52,15.86 -4.58,21.48 -2.99,5.49 -7.52,9.84 -13.319,12.76 -2.811,1.42 -5.89999,2.7 -9.07,3.92 -3.12,1.2 -6.45,2.76 -10.07,2.68 0.09,-1.33 1.561,-1.79 2.47,-2.35 2.98,-1.82 6.24,-3.66 9.511,-5.37 4.38,-2.28 8.819,-4.47 12.31,-7.61 7.32,-6.58 8.93,-16.63 9.96,-29.76 0.48,-6.16 0.561,-12.64 0.561,-19.14 0,-6.38 -0.67,-12.53 -2.69,-17.23 -2.88,-6.7 -7.479,-12.43 -12.2,-17.68 -1.399,-1.57 -3.51,-4.02 -5.37,-4.81 -3.029,-1.3 -7.35,-1.58 -11.3,-2.13 -10.76,-1.51 -22.479,-1.95 -33.68,-3.25 -0.86,-0.1 -1.91,-0.06 -2.58,-0.67 11.479,-0.6 25.08,-0.77 36.26,0.34 4.101,0.4 7.96,0.81 10.97,2.12 3.011,1.32 5.23,3.27 7.61,5.38 4.73,4.19 8.57,8.9 11.63,14.43 1.58,2.85 2.811,5.93 3.471,9.51 0.656,3.59 0.716,7.77 0.786,12.2 z"
	id="path13" /><path
	d="m 606.61291,246.97593 c 4,8.15 6.71,18.97 4.14,32.01 -1.479,7.53 -4.25,14.8 -8.39,20.25 -1.32,1.75 -3.08,4.1 -5.48,4.03 -2.33,-0.06 -3.739,-1.9 -4.14,-3.24 -0.57,-1.87 -0.03,-4.96 0.55,-7.28 1.66,-6.57 4.48,-12.05 6.05,-18.8 2.37,-10.24 -2.279,-18.27 -6.489,-24.95 -4.32,-6.84 -9.021,-13.15 -17.351,-15.78 -3.99,-1.26 -9.109,-2.17 -14.1,-2.46 -5.76,-0.34 -12.271,-0.25 -16.67,1.57 -1.12,0.46 -1.96,1.22 -3.021,1.9 -2.93,1.86 -6.37,3.29 -9.85,4.81 -9.021,3.93 -18.84,7.45 -29.43,9.74 -5.811,1.25 -11.051,1.67 -17.681,1.9 -20.52,0.71 -32.189,-6.39 -42.75,-16 -1.41,-1.29 -3.18,-2.91 -4.81,-5.04 -1.16,-1.52 -3.221,-4.1 -2.91,-6.83 0.31,-2.72 3.979,-4.03 6.15,-3.8 5.119,0.54 8.439,5.71 11.64,8.17 3.91,3 8.51,5.35 12.649,7.16 4.61,2.01 9.86,3.82 15.221,4.59 5.779,0.83 12.17,-0.36 17.34,-1.68 10.68,-2.73 19.979,-6.56 28.979,-10.63 4.631,-2.09 8.841,-4.49 14.101,-5.71 5.35,-1.24 11.149,-1.69 17.91,-2.01 -0.021,0 0.04,-0.11 0.109,-0.11 13.67,-0.65 23.57,1.79 31.11,7.16 7.403,5.26 12.923,12.48 17.123,21.03 z"
	id="path15" /><path
	d="m 583.45291,271.71593 c 2.47,0.89 8.38,2.36 7.16,6.26 -0.93,2.97 -6.43,3.2 -10.18,3.47 -4.641,0.34 -9.45,-0.15 -12.65,1.01 -3.29,1.19 -5.05,4.35 -6.14999,7.5 -0.63,1.8 -1.09001,3.75 -1.12,5.7 -0.029,1.96 1.18999,3.69 0.77999,5.71 -0.42,2.04 -1.83,2.98 -3.25,4.48 -2.74,2.88 -5.41,6.56 -7.72,9.73 -3.26,4.5 -6.41,9.36 -9.4,13.88 -6.22,9.43 -13.02,18.34 -19.8,26.63 -3.58,4.38 -7,8.56 -10.86,12.42 -11.54,11.55 -24.699,21.6 -38.27,31.33 -9.11,6.54 -18.45,12.54 -28.87,17.57 -10.439,5.04 -22.15,8.8 -34.35,12.09 -12.17,3.28 -25.13,5.95 -38.72,7.72 -20.38,2.65 -42.98,3.69 -66.03,3.69 -23.11,0 -45.9,-0.65 -66.47,-3.24 -13.72,-1.729 -27.23,-4.12 -38.49,-7.95 -11.82,-4.01 -20.49,-10.029 -26.86,-19.58 -6.03,-9.05 -10.56,-20.57 -12.31,-34.13 -0.87,-6.78 -1.11,-14.18 -1.45,-21.82 -0.34,-7.38 -0.47,-15.18 -0.11,-22.61 0.71,-14.92 1.24,-28.72 4.47,-41.96 0.73,-3 1.67,-6.12 3.02,-8.62 0.75,-1.37 1.52,-2.14 2.69,-3.13 3.21,-2.73 3.63,-7.55 4.81,-12.65 0.87,-3.76 3.16,-8.93 6.83,-6.15 3.29,2.49 3.8,9.98 4.47,14.55 1.38,9.34 3.4,17.51 8.62,23.16 2.58,2.79 5.67,5.3 8.62,7.28 12.7,8.5 27.51,14.75 44.87,18.68 17.41,3.95 38.55,4.62 59.08,3.14 19.98,-1.45 38.94,-3.44 56.29,-7.28 17.41,-3.85 33.99,-8.44 50.36,-13.2 16.21,-4.71 32.3,-9.76 48.45,-15.11 23.6,-7.81 46.36,-16.86 67.26,-28.09 3.34,-1.8 6.87,-3.47 10.29,-5.59 3.17,-1.96 6.931,-4.56 8.62,-7.28 0.86,-1.39 1.03,-3.65 1.9,-5.25 0.77,-1.43 2.02,-3.12 4.029,-3.25 2.421,-0.15 4.171,3.17 4.921,4.7 0.819,1.66 1.6,4 2.239,6.38 1.28,4.74 2.771,8.75 5.71,11.52 3.261,3.09 7.59,4.34 11.41,5.82 1.971,0.77 4.071,1.71 6.161,2.47 z m -32.12,7.94 c 1.14,-3.88 3.14,-12.55 -3.13,-11.3 -4.70999,0.93 -9.23,3.14 -13.31999,5.15 -8.34001,4.1 -16.27,7.96 -24.62,12.42 -3.859,2.06 -8.609,4.71 -10.63,7.94 -1.71,2.74 -2.16001,7.2 -2.46,11.64 -0.31,4.55 -0.51,9.39 0.891,12.87 6.67,-2 12.34,-5.14 18.35899,-7.95 5.80001,-2.71 11.70001,-5.63 17.34001,-8.95 5.48,-3.23 10.49,-6.62 13.77099,-12.53 1.45901,-2.65 2.749,-5.72 3.799,-9.29 z m -21.04,42.41 c 0.53,-0.84 1.311,-1.73 1.23,-2.8 -0.03,0 -0.07,0 -0.11,0 -5.49,1.67 -10.83,4.33 -16.78,7.05 -5.1,2.34 -11.37,5.11 -14.77,8.62 -2,2.06 -3.24,5.22 -3.92,8.84 -0.67,3.58 -1.271,7.78 -0.11,11.53 0.57,1.85 2.521,4.46 4.92,4.14 1.46,-0.2 3.58,-2.93 4.7,-4.14 1.55,-1.69 2.91,-3.31 4.14,-4.81 7.45,-9.12 14.49,-18.46 20.7,-28.43 z m -45.64999,52.71 c 1.73899,-1.44 4.76999,-3.52 4.699,-6.04 -0.069,-2.2 -2.10001,-3.5 -2.909,-4.82 -1.94,-3.13 -3.2,-7.17 -3.471,-12.19 -0.13,-2.33 0.49,-5.74 -1.01,-6.83 -0.62,-0.45 -1.95,-0.3 -2.46,-0.22 -0.07,0.01 -0.15,-0.02 -0.23,0 -4.76,0.99 -8.43,3.18 -12.529,5.03 -4.181,1.89 -8.351,3.72 -12.311,5.37 -6.25,2.62 -12.46,5.34 -19.359,7.05 -2.551,0.64 -4.931,1.29 -6.49,2.35 -1.811,1.25 -3.561,3.11 -3.69,6.61 -0.13,3.34 1.03,6.87 1.9,9.84 1.77,6.03 4.24,11.59 6.939,16.68 1.171,2.19 2.891,6.07 5.48,6.38 2.61,0.3 5.5,-2.09 7.39,-3.25 6.931,-4.26 12.95,-8.29 19.36,-12.64 6.251,-4.26 12.741,-8.43 18.691,-13.32 z m 1.12,-69.83 c 0.521,-3.21 -0.5,-6.91 -2.47001,-6.94 -1.479,-0.02 -3.38,0.59 -4.92,1.01 -10.71,2.92 -20.229,6.32 -30.77,9.51 -8.61,2.61 -18.141,4.89 -26.641,7.95 -2.6,0.93 -6.29,2.52 -6.93,4.58 -0.59,1.9 0.27,4.53 0.67,6.38 0.9,4.19 1.74,8.3 2.91,12.2 0.43001,1.44 1.21,4.7 2.57,5.04 0.93901,0.23 3.86901,-1.13 5.369,-1.68 1.91,-0.71 3.7,-1.41 5.261,-2.02 9.8,-3.77 18.899,-8.31 29.77,-10.52 1.03,-0.21 2.15,-0.2 3.24,-0.44 2.49,-0.57 5.37,-2.95 7.39,-4.7 4.19,-3.64 7.811,-7.81 10.851,-12.42 1.6,-2.42 3.2,-4.95 3.7,-7.95 z m -62.56,104.41 c 0.48,-1.76 -0.32,-3.96 -0.78,-5.26 -2.87,-8.09 -7.76,-13.13 -9.29,-22.38 -0.21,-1.25 -0.449,-3.19 -0.449,-5.82 0,-4.04 -0.25,-6.03 -3.351,-5.71 -2.67001,0.28 -4.729,1.25 -6.93901,2.01 -11.06099,3.84 -21.351,7.52 -33.351,10.64 -4.17,1.08 -10.14999,1.75 -12.76,4.81 -1.75,2.06 -2.07,6.44 -2.01,10.29 0.05,3.38 0.16001,6.5 0.33,10.07 0.28,5.78 -0.08,15.07 3.7,17.24 2.1,1.2 6.1,0.69 9.06,0.33 9.46,-1.14 17.87,-3.01 25.96,-4.92 8.09,-1.91 16.34,-4.17 23.84,-7.05 2.19,-0.84 5.45,-2.05 6.04,-4.25 z m -17.46,-62.67 c 0.33,-1.63 -0.67,-4.16 -1.12,-5.93 -0.55,-2.21 -1.07,-4.24 -1.45,-5.93 -0.96,-4.25 -1.47,-7.97 -4.25,-10.52 -2.39,0.27 -4.989,0.86 -7.609,1.34 -2.351,0.43 -4.75,0.93 -6.94,1.35 -9.46,1.8 -18.42,3.33 -27.53,5.59 -4.21,1.05 -9.41,2.2 -11.64,4.92 -1.78,2.18 -1.9,5.9 -2.23,10.08 -0.27,3.25 -1.02,7.79 0.44,9.96 1.06,1.56 4.46,1.77 7.73,1.9 9.58,0.38 18.91,-1.47 26.07,-2.8 8.101,-1.5 16.09,-3.13 23.05,-5.82 2.239,-0.86 5.059,-2.04 5.479,-4.14 z m -62.77,72.96 c 0.5,-7.07 -0.03,-14.14 -0.67,-21.15 -0.3,-3.21 -0.75,-7.83 -2.58,-8.5 -0.63,-0.23 -1.56,0 -1.57,0 -1.74,0.26 -3.25,0.89 -4.92,1.23 -8.42,1.71 -17.46,2.32 -26.86,3.13 -3.52,0.31 -7.92,0.68 -9.17,2.8 -1.03,1.75 -0.48,6.29 -0.11,8.39 0.9,5.25 1.94,9.72 3.02,14.89 0.51,2.43 0.78,5.199 2.12,6.819 1.85,2.23 5.98,2.29 9.96,2.46 7.14,0.32 13.39,-0.04 19.47,-0.439 2.62,-0.18 6.68,-0.05 8.73,-1.24 2.03,-1.16 2.33,-4.9 2.58,-8.39 z m -13.77,-62.55 c 1.63999,-1.82 1.46,-5.88 1.46,-9.51 0,-3.69 0.14,-8.06 -1.46,-9.63 -1.21,-1.2 -3.82,-1.37 -6.71,-1.23 -10,0.47 -19.55,2.26 -29.1,3.47 -1,2.56 -1.58,5.14 -2.23,8.17 -0.51,2.36 -1.93,6.7 -0.68,8.84 1.08,1.84 5.49,2.01 8.62,2.13 3.37,0.12 7.14,0.11 10.74,0.11 6.02,0 16.62,0.7 19.36,-2.35 z m -42.07,71.5 c 1.45,-1.65 0.47,-5.591 0.11,-7.83 -0.96,-5.87 -1.88,-9.94 -3.36,-14.771 -0.69,-2.26 -1.22,-5.06 -2.8,-6.38 -2.42,-2.02 -10.08,-1.75 -13.87001,-1.57 -3.52999,0.17 -12.16999,0.05 -13.08999,2.69 -0.82,2.33 1.11,5.67 2.01,7.72 2.15999,4.93 4.07,8.97 6.70999,13.32 1.26,2.06 2.65001,4.62 4.37,5.71 2.27001,1.42 6.08001,1.75 9.62001,2.01 2.93999,0.221 8.73,0.881 10.3,-0.899 z m -8.73,-77.54 c 0.28,-2.52 0.79,-6.3 -0.11,-8.06 -1.18,-2.29 -4.13,-2.93 -7.39,-3.58 -6.63,-1.33 -12.15,-1.99 -18.58,-2.8 -3.21,-0.41 -6.91,-1.01 -10.07,-0.67 -4.84,0.52 -5.38,4.1 -6.71,8.5 -0.4,1.33 -0.96,2.87 -1.34,4.37 -0.4,1.55 -0.9,3.72 -0.34,5.03 0.97,2.28 6.26,2.79 8.95,3.25 7.73,1.3 14.16,1.61 22.61,2.01 3.84999,0.18 9.13,0.24 10.96,-1.34 1.42,-1.23 1.71,-3.99 2.02,-6.71 z m -30.66,74.3 c 0.44,-1.04 -0.34,-2.71 -0.79,-3.92 -2.36,-6.41 -3.78,-12.53 -6.6,-18.24 -0.95,-1.91 -2.58,-5.19 -4.25,-5.7 -1.17,-0.37 -2.66,-0.23 -3.92,-0.45 -1.22,-0.22 -2.49,-0.41 -3.69,-0.67 -2.16,-0.49 -5.41,-2.05 -7.16,-1.57 -1.33,0.36 -0.79,1.73 -0.23,3.13 2.25,5.57 4.77,9.21 6.94,14.89 0.79,2.07 1.97,4.9 1.9,6.93 -0.02,0.86 -0.58,1.42 -0.44,2.13 0.19,1 2.42,1.95 3.58,2.351 1.62,0.56 3.19,0.82 4.81,1.12 1.95,0.359 8.94,2.149 9.85,-10e-4 z m -24.73,-85.94 c 0.43,-1.69 1.32,-3.86 1.11,-5.6 -0.41001,-3.52 -5.21001,-5.57 -7.94,-6.94 -1.64,-0.82 -3.1,-1.41 -4.7,-2.12 -1.62,-0.73 -3.26,-1.6 -5.26,-1.68 -1.83,-0.07 -3.06,3.79 -3.47,5.93 -1.31,6.92 -0.07,17.07 2.8,21.6 2.78999,4.4 8.33,4.03 14.09999,5.48 1.87,-2.96 1.42001,-7.07 2.13,-11.19 0.30001,-1.78 0.75,-3.66 1.23001,-5.48 z m -6.72001,80.79 c 0.14,-1.55 -0.65999,-2.979 -1.22999,-4.359 -2.76,-6.65 -6.04001,-13.48 -9.85001,-19.25 -1.39999,-2.12 -3.35999,-5.3 -5.47999,-6.27 -2.8,-1.28 -3.25,0.54 -2.57,3.25 0.94,3.78 2.41,6.89 2.68,10.96 0.2,2.89 -0.22,4.62 -1.9,5.38 -1.33,0.59 -4.75,-0.24 -6.6,1.12 0.44,2.12 2.74,3.21 4.59,4.14 4.09,2.051 8.55,3.04 13.2,4.25 2.32,0.599 4.86,1.689 7.16,0.779 z m -25.06,-100.38 c 0,-2.49 0.11,-8.75 -1.90999,-8.28 -0.15001,0.04 -0.24,0.03 -0.33001,0.11 -3.83,3.77 -6.5,12.98 -8.4,19.14 -0.68,2.22 -1.73,4.98 -1.56,7.72 0.16,2.62 1.83,3.72 3.58,5.04 1.09001,0.81 2.78001,2.63 4.48,2.24 1.53,-0.37 2.23001,-4.89 2.57,-7.39 0.88,-6.47 1.57,-11.47 1.57,-18.58 z m -5.82,88.52 c 1.24,-0.15 0.99,-2.82 0.78001,-3.92 -0.87,-4.46 -2.55,-7.97 -4.25,-11.41 -2.38,-4.81 -4.74,-9.22 -7.84001,-12.98 -0.07,0 -0.14999,0 -0.21999,0 -0.01,-0.07 -0.02,-0.13 -0.11001,-0.11 0,0.15 -0.05,0.24 -0.11,0.33 0.39001,2.74 1.28001,5.34 2.23001,7.72 2.32999,5.8 4.91,11.73 7.38999,17.46 0.43,0.99 1.16001,3.02 2.13,2.91 z m -7.61,-106.53 c 0.3,-0.95 0.86,-2.42 0,-3.25 -2.25,0.77 -5.68,7.42 -4.93,10.41 1.81,-0.5 2.87,-2.62 3.7,-4.36 0.37,-0.79 0.91,-1.82 1.23,-2.8 z"
	id="path17" /><path
	d="m 548.20291,268.35593 c 6.27,-1.25 4.27,7.42 3.13,11.3 -1.05,3.57 -2.33999,6.64 -3.8,9.29 -3.27999,5.91 -8.29,9.3 -13.771,12.53 -5.64,3.32 -11.54,6.24 -17.33999,8.95 -6.02,2.81 -11.68901,5.95 -18.359,7.95 -1.4,-3.48 -1.2,-8.32 -0.891,-12.87 0.3,-4.44 0.75,-8.9 2.45999,-11.64 2.021,-3.23 6.771,-5.88 10.63,-7.94 8.351,-4.46 16.28,-8.32 24.62,-12.42 4.091,-2.01 8.611,-4.22 13.321,-5.15 z"
	id="path19"
	style="fill:#ffffff" /><path
	d="m 534.10291,410.13593 c 1.63,-0.08 -0.25,1.47 -0.79,1.9 -5.051,4.04 -11.44,7.26 -17.12,10.41 -6.891,3.83 -13.891,7.32 -20.7,10.74 -14.05,7.069 -28.43,13.91 -43.08,19.92 -14.7,6.029 -30.49,11.29 -47.11,15.89 -8.29,2.3 -16.96999,3.95 -25.63,5.82 -25.91,5.59 -51.979,10.47 -81.35,13.09 -9.7,0.87 -19.74,1.37 -29.77,1.68 -10.18,0.32 -20.41,0.45 -30.55,0.9 -10.56,0.46 -20.89,0.68 -31.11,0.22 -5.04,-0.229 -9.66,-0.75 -13.87,-1.899 -3.93,-1.08 -7.57,-2.841 -10.97,-4.7 -3.2,-1.76 -6.57,-3.87 -9.85,-5.931 -3.23,-2.04 -6.53,-4.04 -9.51,-6.159 -3.04,-2.16 -6.22,-4.551 -7.05,-8.73 -0.86,-4.31 -0.12,-9.53 0.34,-14.66 1.07,4.82 1.02,9.3 2.79,12.76 1.71,3.341 4.54,5.671 7.61,7.83 5.99,4.221 12.77,8.141 19.25,11.75 3.44,1.92 6.86,3.771 10.63,4.931 3.9,1.2 8.25,1.779 13.32,2.12 9.31,0.63 19.86,0.26 30.21,-0.221 20.08,-0.93 40.04,-1.08 58.97,-2.91 19.08,-1.84 36.77,-4.619 53.83,-8.06 17.39,-3.49 34.26,-7 51.14,-10.85 16.779,-3.83 31.89,-9.521 46.22,-15.67 14.21,-6.091 28.44,-12.78 42.18,-19.69 11.761,-5.91 23.36,-12.67 35.92,-18.24 1.85,-0.821 4.44,-2.171 6.05,-2.241 z"
	id="path21" /><path
	d="m 532.98291,206.47593 c 0.52,1.67 -2.06099,3.09 -3.021,3.58 -4.17,2.09 -11.029,3.14 -16.899,2.01 2.72,-1.57 7.46,-1.12 9.96,-2.91 -0.59,-1.19 -2.101,-1.53 -3.25,-2.01 -3.5,-1.49 -7.83,-2.98 -11.19,-4.7 -0.09,-0.02 -0.11,-0.12 -0.22,-0.11 0.05,-0.1 0.1,-0.2 0.22,-0.23 6.53,0.37 13.2,1.24 19.59,2.58 1.26,0.26 4.54,0.93 4.81,1.79 z"
	id="path23" /><path
	d="m 531.52291,319.26593 c 0.08,1.07 -0.7,1.96 -1.23,2.8 -6.21,9.97 -13.25,19.31 -20.7,28.43 -1.22899,1.5 -2.58999,3.12 -4.13999,4.81 -1.12,1.21 -3.24001,3.94 -4.7,4.14 -2.399,0.32 -4.35001,-2.29 -4.92,-4.14 -1.16001,-3.75 -0.56001,-7.95 0.11,-11.53 0.68,-3.62 1.92,-6.78 3.92,-8.84 3.399,-3.51 9.67,-6.28 14.77,-8.62 5.94999,-2.72 11.28999,-5.38 16.77999,-7.05 0.04,0 0.08,0 0.11,0 z"
	id="path25"
	style="fill:#ffffff" /><path
	d="m 514.96291,167.64593 c 1.851,2.12 4.03,4.34 4.7,7.16 -1.55,-0.1 -2.87,-1.17 -4.02999,-2.02 -3.37,-2.48 -6.56,-5.56 -9.51,-8.5 -12.01,-12.01 -26.979,-20.82 -44.2,-27.98 -5.64,-2.35 -11.51,-4.47 -17.79,-6.26 -6.27,-1.79 -12.89,-3.07 -19.92001,-4.14 -13.88999,-2.14 -28.77899,-3.76 -44.87999,-3.03 -14.9,0.68 -28.11001,3.82 -42.52,5.6 -28.64,3.53 -62.42,2.47 -91.42,-0.34 -7.55001,-0.73 -15.01,-1.74 -22.61001,-1.45 -3.91,0.15 -7,0.9 -9.62,2.35 -2.5,1.38 -4.78,3.78 -8.28,3.24 -0.39,-1.46 0.59,-2.21 1.23,-2.91 1.89,-2.05 4.83,-4.14 7.94,-5.03 5.85,-1.68 14.88,-0.97 21.27001,-0.45 6.93,0.56 13.86,1.31 20.69999,1.9 13.67,1.19 28.4,2.13 42.97,2.13 14.97,0 28.42,-1.11 42.07001,-3.13 9.73,-1.44 18.92,-3.73 29.32,-4.59 1.74,-0.15 3.47,-0.25 5.26,-0.34 17.43,-0.89 35.5,0.87 50.92,3.14 7.25,1.06 13.979,2.11 20.25,3.91 6.189,1.78 11.95999,4.16 17.68,6.49 17.21999,7.03 32.08,16.25 44.65,27.98 2.02999,1.89 3.97,4.13 5.81999,6.27 z"
	id="path27" /><path
	d="m 506.79291,216.54593 c 3.82,-1.97 10.771,0.34 7.84,5.14 -2.97,-1.36 -5.9,-2.75 -7.84,-5.14 z"
	id="path29" /><path
	d="m 503.55292,409.35593 c 1.271,0.01 -0.29,1.12 -0.79,1.45 -4.43901,2.98 -9.659,5.61 -14.54001,8.17 -28.72899,15.06 -58.43,28.12 -90.869,39.5 -12.87,4.52 -26.11,8.56 -41.851,10.3 -7.84,0.859 -15.99,1.21 -24.28,1.79 -16.11,1.13 -32.97,1.76 -49.69,2.46 -25.16,1.06 -52.72,1.32 -71.06,-6.271 -10.67,-4.42 -19.96,-10.34 -26.74,-18.8 -0.96,-1.189 -2.19,-2.51 -2.24,-4.25 1.72,-0.34 3.09,0.99 4.25,1.79 3.77,2.601 6.9,5.87 10.52,8.62 9.4,7.11 21.83,12.83 36.15,15.1 14.73,2.341 33.41,0.811 49.23,0.341 8.15,-0.24 16.3,-0.69 24.51,-1.12 16.44,-0.86 32.73,-1.32 48.23,-2.91 7.76,-0.79 15.02,-1.94 21.82,-3.8 6.62,-1.811 12.9,-4.141 19.25,-6.38 25.53,-9.03 48.53,-19.2 72.18,-30.221 9.83,-4.58 20.051,-9.729 30.771,-13.98 1.609,-0.639 3.709,-1.809 5.149,-1.789 z"
	id="path31" /><path
	d="m 499.86292,173.01593 c 1.43,1.66 3.68,3.57 3.24,6.15 -1.431,0.12 -2.591,-0.93 -3.58,-1.68 -3.07,-2.3 -5.75,-5.18 -8.511,-7.83 -3.689,-3.55 -7.85,-6.65 -12.079,-9.74 -4.28,-3.11 -8.7,-5.96 -13.65,-8.17 -4.94,-2.2 -10.22,-4.03 -16,-5.81 -16.53,-5.1 -37.7,-6.47 -59.43,-5.6 -3.551,0.14 -7.21,0.22 -10.74,0.22 -3.41,0 -6.89,0.24 -9.96,-0.89 0.82,-1.06 2.42,-1.32 3.81,-1.57 4.4,-0.79 9.67,-0.77 14.771,-1 6.02,-0.28 13.79,-0.14 19.92,0.11 6.52,0.26 12.79,0.37 18.8,0.89 12.23,1.06 22.78,3.52 32.45,6.94 14.63,5.18 26.06,13.06 36.14,22.94 1.589,1.55 3.279,3.26 4.819,5.04 z"
	id="path33" /><path
	d="m 500.19292,206.47593 c 1.07999,4.21 -1.57,6.75 -4.25,8.61 -1.931,1.34 -4.311,2.38 -6.94,2.69 -5.72001,0.67 -12.34,-0.81 -17.229,-1.79 -10.58,-2.13 -23.73,-3.52 -35.25,-2.35 -23.82,2.42 -39.69,11.23 -57.19,19.8 -5.69,-3.38 -11.13,-6.91 -15.89,-11.3 -1.6,-1.48 -3.25,-2.95 -4.25,-4.81 -1.37,-2.57 -1.58,-7.55 -0.56,-10.41 0.88,-2.43 3.18,-4.59 5.15,-6.49 5.83,-5.61 13.42,-10.29 20.58999,-14.21 9.11001,-4.97 17.84,-9.19 30.44,-10.29 10.14,-0.9 22.42001,-0.6 32.44901,0.67 8.05099,1.02 15.68099,2.39 22.82999,4.81 10.24001,3.46 18.051,9.25 24.84101,16.56 2.16899,2.33 4.459,5.39 5.259,8.51 z m -27.86,-4.03 c 3.92,2.23 8.64999,3.17 13.31099,4.25 -2.14999,-4.6 -7.011,-8.98 -13.64999,-8.28 -1.23001,0.13 -2.58,0.22 -2.68001,1.23 -0.141,1.3 1.979,2.21 3.01901,2.8 z m -51.7,0.22 c 0.43099,-1.02 -0.13,-2.45 -0.449,-3.47 -0.71101,-2.26 -1.301,-4.16 -1.57,-6.71 -0.14101,-1.39 0.02,-2.97 -0.561,-3.58 -0.569,-0.62 -1.96,-0.53 -2.79,-0.45 -2.31,0.21 -4.67001,0.82 -6.829,1.45 -12.601,3.72 -23.381,9.15 -31.89101,17.13 -1.39,1.3 -3.13,3.06 -2.91,5.25 0.22,2.29 2.87,4.43 5.26,4.7 1.97,0.23 4.079,-0.48 5.819,-1.11 5.23,-1.91 10.05,-4.27 14.54,-6.49 4.39101,-2.18 9.38,-4.67 15.89101,-5.15 2.07999,-0.16 4.88999,-0.16 5.49,-1.57 z"
	id="path35" /><path
	d="m 489.34291,368.73593 c 0.07,2.52 -2.95999,4.6 -4.699,6.04 -5.95,4.89 -12.44,9.06 -18.69,13.32 -6.41,4.35 -12.43,8.38 -19.36,12.64 -1.89,1.16 -4.779,3.55 -7.39,3.25 -2.58999,-0.31 -4.31,-4.19 -5.48,-6.38 -2.699,-5.09 -5.17,-10.65 -6.939,-16.68 -0.87,-2.97 -2.03,-6.5 -1.9,-9.84 0.13,-3.5 1.88,-5.36 3.69,-6.61 1.56,-1.06 3.939,-1.71 6.49,-2.35 6.899,-1.71 13.109,-4.43 19.359,-7.05 3.96,-1.65 8.13,-3.48 12.311,-5.37 4.1,-1.85 7.77,-4.04 12.529,-5.03 0.08,-0.02 0.16,0.01 0.23,0 0.51,-0.08 1.84,-0.23 2.46,0.22 1.5,1.09 0.88,4.5 1.01,6.83 0.271,5.02 1.53,9.06 3.471,12.19 0.808,1.32 2.838,2.62 2.908,4.82 z"
	id="path37"
	style="fill:#ffffff" /><path
	d="m 483.29291,298.00593 c 1.97001,0.03 2.99,3.73 2.47001,6.94 -0.5,3 -2.10001,5.53 -3.69901,7.95 -3.04,4.61 -6.66,8.78 -10.851,12.42 -2.01999,1.75 -4.899,4.13 -7.38999,4.7 -1.09,0.24 -2.21,0.23 -3.24,0.44 -10.87001,2.21 -19.97001,6.75 -29.77,10.52 -1.561,0.61 -3.351,1.31 -5.26101,2.02 -1.5,0.55 -4.43,1.91 -5.36899,1.68 -1.36,-0.34 -2.141,-3.6 -2.57,-5.04 -1.17,-3.9 -2.01,-8.01 -2.91,-12.2 -0.4,-1.85 -1.26,-4.48 -0.67001,-6.38 0.64,-2.06 4.33,-3.65 6.93,-4.58 8.5,-3.06 18.03,-5.34 26.64101,-7.95 10.54,-3.19 20.06,-6.59 30.76999,-9.51 1.539,-0.42 3.43901,-1.03 4.919,-1.01 z"
	id="path39"
	style="fill:#ffffff" /><path
	d="m 485.64292,206.69593 c -4.66001,-1.08 -9.39101,-2.02 -13.311,-4.25 -1.04,-0.59 -3.16,-1.5 -3.02,-2.8 0.1,-1.01 1.449,-1.1 2.68,-1.23 6.641,-0.7 11.501,3.68 13.651,8.28 z"
	id="path41"
	style="fill:#ffffff" /><path
	d="m 449.50292,275.51593 c 2.601,0.48 5.32,1.06 3.91,3.92 -3.6,0.08 -7.52,-0.38 -11.63,-0.67 -7.75,-0.56 -15.87,-0.89 -23.61,-1.8 -5.689,-0.66 -11.92,-1.06 -13.77,-5.59 -1.141,-2.8 -0.23,-8.41 2.46,-8.62 3.359,-0.26 0.77,3.6 0.79,5.04 0.05,5.35 7.49,5.41 12.87,5.93 9.43,0.91 19.78,0.09 28.98,1.79 z"
	id="path43" /><path
	d="m 422.42292,404.09593 c 0.46,1.3 1.261,3.5 0.78,5.26 -0.59,2.2 -3.85001,3.41 -6.04001,4.25 -7.5,2.88 -15.75,5.14 -23.83999,7.05 -8.09,1.91 -16.5,3.78 -25.96,4.92 -2.96,0.36 -6.96,0.87 -9.06,-0.33 -3.78,-2.17 -3.42,-11.46 -3.7,-17.24 -0.17,-3.57 -0.28,-6.69 -0.33,-10.07 -0.06,-3.85 0.26,-8.23 2.01,-10.29 2.61,-3.06 8.59,-3.73 12.76,-4.81 12,-3.12 22.29,-6.8 33.351,-10.64 2.21,-0.76 4.27,-1.73 6.939,-2.01 3.101,-0.32 3.351,1.67 3.351,5.71 0,2.63 0.239,4.57 0.449,5.82 1.53,9.25 6.42,14.29 9.29,22.38 z"
	id="path45"
	style="fill:#ffffff" /><path
	d="m 420.18292,199.19593 c 0.319,1.02 0.88,2.45 0.449,3.47 -0.6,1.41 -3.41,1.41 -5.489,1.57 -6.511,0.48 -11.5,2.97 -15.891,5.15 -4.49,2.22 -9.31,4.58 -14.54,6.49 -1.74,0.63 -3.85001,1.34 -5.819,1.11 -2.39101,-0.27 -5.041,-2.41 -5.26,-4.7 -0.22001,-2.19 1.51999,-3.95 2.91,-5.25 8.51,-7.98 19.29,-13.41 31.891,-17.13 2.159,-0.63 4.52,-1.24 6.829,-1.45 0.83,-0.08 2.221,-0.17 2.79,0.45 0.58,0.61 0.42,2.19 0.561,3.58 0.269,2.55 0.859,4.45 1.569,6.71 z"
	id="path47"
	style="fill:#ffffff" /><path
	d="m 404.62292,340.75593 c 0.45,1.77 1.45,4.3 1.12,5.93 -0.42,2.1 -3.24,3.28 -5.48,4.14 -6.96,2.69 -14.94901,4.32 -23.05001,5.82 -7.16,1.33 -16.49,3.18 -26.06999,2.8 -3.27,-0.13 -6.67001,-0.34 -7.73001,-1.9 -1.45999,-2.17 -0.70999,-6.71 -0.44,-9.96 0.33,-4.18 0.45,-7.9 2.23001,-10.08 2.23,-2.72 7.43,-3.87 11.63999,-4.92 9.11001,-2.26 18.07,-3.79 27.53,-5.59 2.19,-0.42 4.59,-0.92 6.94,-1.35 2.62,-0.48 5.22,-1.07 7.609,-1.34 2.78,2.55 3.29,6.27 4.25,10.52 0.381,1.69 0.901,3.72 1.451,5.93 z"
	id="path49"
	style="fill:#ffffff" /><path
	d="m 399.70292,273.61593 c 1.11,2.88 1.12,6.85 1.12,11.3 0,5.88 -0.29001,10.48 -2.57,13.65 -1.68,2.34 -5.64,5.12 -8.96,6.83 -1.149,0.59 -2.79,1.37 -3.91,1.23 -1.489,-0.19 -2.33,-1.66 -2.91001,-2.57 -0.949,-1.48 -1.949,-3.61 -1.22899,-6.16 0.87,-3.1 3.42,-4.07 5.25999,-6.49 1.76,-2.32 3.97001,-7.02 2.24001,-11.19 -1.54001,-3.69 -8.13,-4.64 -12.65,-5.48 -2.37,-0.44 -4.73,-0.41 -7.61,-1.46 -1.97001,-0.72 -4.24,-2.45 -4.14,-4.81 0.1,-2.33 2.7,-3.38 4.59,-4.03 2.48,-0.85 4.98,-0.99 7.61,-1.12 10.16899,-0.48 20.219,2.63 23.159,10.3 z"
	id="path53" /><path
	d="m 381.80292,142.79593 c 0.311,1.7 -0.949,3 -1.79,4.14 -2.60001,3.5 -5.419,6.53 -7.5,10.75 -2.04001,4.13 -3.4,8.43 -4.48001,13.87 -0.3,1.54 -0.41,3.32 -1.44999,4.59 -0.79001,-7.47 -0.37001,-14.87 2.35,-20.81 1.26,-2.77 2.89,-5.06 4.81,-7.17 1.83,-2 4.51,-4.78 7.05,-5.48 0.31,-0.09 0.62,-0.14 1.01,0.11 z"
	id="path55" /><path
	d="m 363.33292,284.13593 c 6.42,0.52 10.32999,1.3 9.85,8.5 -0.25,3.78 -2.27,7.89 -5.26,7.83 -2.61,-0.04 -2.86,-2.37 -4.36,-3.24 -1.66001,-0.96 -5.02,-1.39 -7.84,-1.57 -6.3,-0.4 -11.54,0.56 -18.12,-0.11 -2.77,-0.28 -5.84,-0.99 -6.16,-3.13 -0.55,-3.72 5.22,-5.76 7.95,-6.6 4.26,-1.33 8.28,-1.69 12.86,-1.91 3.58,-0.17 7.55,-0.06 11.08,0.23 z"
	id="path57" /><path
	d="m 342.30292,398.49593 c 0.64,7.01 1.17,14.08 0.67,21.15 -0.25,3.489 -0.55,7.229 -2.58,8.39 -2.05,1.19 -6.11,1.061 -8.73,1.24 -6.08,0.399 -12.33,0.76 -19.47,0.439 -3.98,-0.17 -8.11,-0.229 -9.96,-2.46 -1.34,-1.62 -1.61,-4.39 -2.12,-6.819 -1.08,-5.17 -2.12,-9.64 -3.02,-14.89 -0.37,-2.1 -0.92,-6.64 0.11,-8.39 1.25,-2.12 5.65,-2.49 9.17,-2.8 9.4,-0.81 18.44,-1.42 26.86,-3.13 1.67,-0.34 3.18,-0.97 4.92,-1.23 0.01,0 0.94,-0.23 1.57,0 1.83,0.67 2.28,5.29 2.58,8.5 z"
	id="path59"
	style="fill:#ffffff" /><path
	d="m 330.66291,347.58593 c 0,3.63 0.18,7.69 -1.45999,9.51 -2.74001,3.05 -13.34001,2.35 -19.36001,2.35 -3.6,0 -7.37,0.01 -10.74,-0.11 -3.13,-0.12 -7.54,-0.29 -8.62,-2.13 -1.25,-2.14 0.17,-6.48 0.68,-8.84 0.65,-3.03 1.23,-5.61 2.23,-8.17 9.55,-1.21 19.1,-3 29.1,-3.47 2.89,-0.14 5.5,0.03 6.71,1.23 1.6,1.57 1.46,5.94 1.46,9.63 z"
	id="path61"
	style="fill:#ffffff" /><path
	d="m 318.24291,215.53593 c 0.1,1.61 -1.84,3.19 -2.8,4.03 -1.24,1.07 -2.68,2 -4.03,2.8 -4.31,2.55 -10.23,3.98 -11.97,8.84 -1.25,3.47 -0.93,7.95 -1.01,12.08 -0.09,4.33 -0.33,8.26 -1.57,11.53 -1.16999,3.1 -3.15,5.36 -5.47999,7.61 -2.04001,1.96 -4.64,4.15 -7.61001,5.48 -1.13999,0.51 -2.53,0.59 -3.68999,1.12 -2.96001,1.36 -6.93001,6.69 -6.49001,11.08 0.32,3.27 2.57,6.38 4.36001,8.84 3.69,5.07 7.69999,9.58 12.97999,13.43 2.51,1.82 6.92,4.46 11.08001,3.47 3.06,-0.73 5.12,-4.56 8.83999,-4.26 2.79001,0.23 6.09001,4.28 4.7,8.06 -2.09,5.67 -9.87,7.84 -16.66999,8.28 -7.81,0.51 -11.78001,-1.94 -15.89,-5.71 -5.84001,-5.34 -10.6,-11.02 -16.57,-16.11 -1.81,-1.55 -4.34,-4.01 -6.93,-3.92 -2,0.08 -2.8,2.5 -4.93,2.47 -3.29001,-0.05 -4.04001,-4.98 -7.05,-5.82 -2.91001,-0.82 -6.54001,0.82 -9.17001,1.79 -5.94999,2.18 -10.38999,4.12 -15.66999,6.94 -2.44,1.3 -5.03,2.87 -8.06,3.02 0.01,-1.92 1.8,-3.07 3.02,-4.14 3.81,-3.34 8.55,-6.44 14.66,-7.28 3.79,-0.52 7.03,-2.9 9.63,-5.03 2.57,-2.12 5.03,-5.02 7.38,-7.17 7.82,-7.11 16.17,-12.74 25.40999,-18.46 3.18001,-1.98 6.31,-3.77 8.16001,-6.38 1.71999,-2.41 2.59999,-5.65 3.02999,-9.84 0.43001,-4.23 1.18001,-10.08 -0.56,-12.87 -1.24,-1.99 -4.58999,-3.56 -7.38999,-4.7 -8.48,-3.46 -18.94,-5.25 -29.43001,-6.49 -10.50999,-1.25 -22.21999,-1.87 -32.44999,-3.59 -3.06,-0.51 -7.11001,-1.15 -9.51,-2.46 -1.87,-1.01 -4.67,-3.43 -4.7,-6.26 -0.04,-2.96 3.09,-5.65 4.7,-7.17 4.15999,-3.95 8.81,-6.91 15.44,-8.16 10.90999,-2.06 26.61,-1.06 37.37,0.55 8.37,1.26 14.64999,3.8 20.47999,7.28 5.71001,3.4 10.11,8.21 16.79001,10.97 3.18,1.31 6.86,1.86 11.75,2.12 1.86,0.1 4.03999,0.43 5.93,1.01 1.43,0.44 3.82,1.44 3.91999,3.02 z m -79.9,-12.31 c 2.37,-0.1 4.77,0.19 6.6,-0.67 -2.66,-0.94 -6.48,-1.06 -10.07,-0.9 -2.89,0.14 -5.95,-0.03 -7.95,1.12 3.31,0.57 7.56,0.62 11.42,0.45 z"
	id="path63" /><path
	d="m 326.63292,454.22593 c -9.36001,0.949 -19.7,0.67 -29.99,0.67 -10.25,0 -20.55001,0.229 -29.88,-0.67 19.13,-1 40.70999,-0.89 59.87,0 z"
	id="path65" /><path
	d="m 293.39292,148.50593 c 1.28999,0.36 5.38999,1.46 4.93,3.13 -0.51,1.82 -5.92001,0.53 -7.16001,0.23 -11.89999,-2.87 -24.40999,-3.94 -38.15999,-4.93 -5.32,-0.38 -11.32,-0.86 -16.34001,0 -4.44,0.77 -8.70999,2.79 -12.41999,4.81 -7.52001,4.11 -14.74,8.4 -19.03001,15.45 -1.62999,2.69 -2.53999,5.98 -4.02999,8.95 -0.38,0.78 -0.74,2.04 -1.90001,2.13 -0.91999,-12.71 5.43,-18.91 13.32,-24.29 3.67,-2.5 7.82,-4.58 12.31,-6.71 4.68,-2.22 9.48001,-3.95 15.22001,-4.25 5.55,-0.3 10.91999,0.25 16.11,0.67 10.3,0.83 20.11,1.83 30.09999,3.47 2.36001,0.38 4.30001,0.57 7.05001,1.34 z"
	id="path67" /><path
	d="m 287.91291,162.94593 c 4.49,6.28 4.78001,20.48 3.02001,30.21 -0.73,-1.31 -0.49,-3 -0.56,-4.59 -0.36,-7.93 -1.44,-15.33 -4.7,-21.04 -0.52001,-0.92 -1.26,-1.65 -1.90001,-3.24 -0.40999,-1.03 -1.75999,-5.03 1.34001,-3.81 0.94,0.37 2.18,1.6 2.8,2.47 z"
	id="path69" /><path
	d="m 287.24291,420.76593 c 0.36,2.239 1.34001,6.18 -0.11,7.83 -1.57,1.779 -7.36,1.119 -10.3,0.899 -3.54,-0.26 -7.35,-0.59 -9.62,-2.01 -1.72,-1.09 -3.11,-3.65 -4.37,-5.71 -2.64,-4.351 -4.55,-8.391 -6.71,-13.32 -0.9,-2.05 -2.83,-5.39 -2.01,-7.72 0.92,-2.64 9.56,-2.52 13.09,-2.69 3.79,-0.18 11.45,-0.45 13.87,1.57 1.58,1.32 2.11,4.12 2.8,6.38 1.48,4.831 2.4,8.901 3.36,14.771 z"
	id="path71"
	style="fill:#ffffff" /><path
	d="m 278.29291,342.99593 c 0.90001,1.76 0.39,5.54 0.11,8.06 -0.31,2.72 -0.59999,5.48 -2.01999,6.71 -1.83001,1.58 -7.11001,1.52 -10.96001,1.34 -8.45,-0.4 -14.88,-0.71 -22.60999,-2.01 -2.69,-0.46 -7.98,-0.97 -8.95,-3.25 -0.56,-1.31 -0.06,-3.48 0.34,-5.03 0.38,-1.5 0.94,-3.04 1.34,-4.37 1.33,-4.4 1.87,-7.98 6.71,-8.5 3.16,-0.34 6.86,0.26 10.07,0.67 6.43,0.81 11.94999,1.47 18.58,2.8 3.26,0.65 6.21,1.29 7.39,3.58 z"
	id="path73"
	style="fill:#ffffff" /><path
	d="m 246.95292,421.43593 c 0.44999,1.21 1.22999,2.88 0.78999,3.92 -0.90999,2.149 -7.9,0.359 -9.84999,0 -1.62001,-0.3 -3.19,-0.561 -4.81,-1.12 -1.16001,-0.4 -3.39,-1.351 -3.58001,-2.351 -0.14,-0.71 0.42,-1.27 0.44,-2.13 0.07,-2.029 -1.11,-4.859 -1.9,-6.93 -2.17,-5.68 -4.69,-9.32 -6.94,-14.89 -0.56,-1.4 -1.1,-2.77 0.23,-3.13 1.75,-0.48 5,1.08 7.16,1.57 1.2,0.26 2.47,0.45 3.69,0.67 1.26,0.22 2.75,0.08 3.92,0.45 1.67,0.51 3.3,3.79 4.25,5.7 2.82,5.711 4.24,11.831 6.6,18.241 z"
	id="path75"
	style="fill:#ffffff" /><path
	d="m 244.94292,202.55593 c -1.83001,0.86 -4.23001,0.57 -6.60001,0.67 -3.86,0.17 -8.10999,0.12 -11.41999,-0.45 2,-1.15 5.06,-0.98 7.95,-1.12 3.58999,-0.16 7.40999,-0.04 10.07,0.9 z"
	id="path77"
	style="fill:#ffffff" /><path
	d="m 236.66291,248.77593 c 0.14,4.71 -4.01999,7.85 -7.05,9.62 -5.28999,3.08 -12.84999,4.08 -21.15,4.36 -5.52,0.19 -10.72,-0.22 -13.21,-3.02 -1.73,-1.94 -2.28,-4.7 -3.69,-6.94 -1.35,-2.15 -2.83,-4.09 -5.15,-5.37 -3.46,-1.9 -8.72,-2.34 -13.54,-2.12 -5.16,0.23 -9.11,0.92 -13.09,2.68 -1.86,0.83 -3.65,2.11 -5.82,3.14 -1.73,0.81 -4.53,2.32 -7.05,1.79 -1.75,-0.38 -3.45999,-2.72 -3.57999,-4.82 -0.06,-0.99 0.03,-1.54 0.56,-2.91 1.70999,-4.44 6.33999,-7.51 11.29999,-9.17 5.57001,-1.86 11.84,-2.34 18.13,-2.46 -0.02,0 0.04,-0.11 0.11,-0.12 10.36,-0.13 17.03,1.8 23.06,5.49 2.8,1.71 5.8,3.99 8.39,5.82 2.67,1.89 6.18,5.01 10.4,4.81 3.18,-0.16 5.79,-1.99 8.84,-3.36 4.36,-1.95 12.32,-4.47 12.54,2.58 z"
	id="path79" /><path
	d="m 224.12291,333.81593 c 0.21001,1.74 -0.68,3.91 -1.11,5.6 -0.48,1.82 -0.93,3.7 -1.23,5.48 -0.71,4.12 -0.26,8.23 -2.13,11.19 -5.77,-1.45 -11.31,-1.08 -14.1,-5.48 -2.87,-4.53 -4.11,-14.68 -2.8,-21.6 0.41,-2.14 1.64001,-6 3.47,-5.93 2,0.08 3.64,0.95 5.26,1.68 1.60001,0.71 3.06,1.3 4.7,2.12 2.73,1.37 7.53,3.42 7.94,6.94 z"
	id="path81"
	style="fill:#ffffff" /><path
	d="m 215.06292,415.84593 c 0.57,1.38 1.37,2.81 1.22999,4.359 -2.3,0.91 -4.83999,-0.18 -7.15999,-0.78 -4.65001,-1.21 -9.11001,-2.199 -13.20001,-4.25 -1.84999,-0.93 -4.15,-2.02 -4.59,-4.14 1.85,-1.36 5.27,-0.53 6.6,-1.12 1.68,-0.76 2.1,-2.49 1.9,-5.38 -0.26999,-4.07 -1.74,-7.18 -2.68,-10.96 -0.68,-2.71 -0.23,-4.53 2.57,-3.25 2.12,0.97 4.08,4.15 5.48,6.27 3.81,5.771 7.09,12.601 9.85,19.251 z"
	id="path83"
	style="fill:#ffffff" /><path
	d="m 188.88292,205.23593 c 2.29999,-0.14 5.89999,0.28 5.7,2.58 -0.21,2.54 -7.66,2.43 -10.74001,2.46 -4.46999,0.05 -8.56,0.11 -13.08999,0.11 -7.86,0 -18.69,-1.24 -24.17,1.57 -2.75,1.41 -4.72,4.01 -7.05001,6.15 -2.26,2.08 -4.79,4.07 -7.38999,5.82 -2.88,1.94 -5.67,3.21 -7.83,5.37 -6.23,6.23 -10.67,17.67 -8.96,29.77 0.51,3.59 1.45,7.26 2.35,10.85 0.92,3.64 1.78,7.1 3.14,10.08 2.85,6.24 8.42999,8.61 14.66,11.75 4.40999,2.22 8.7,4.09 13.43,6.37 0.71,0.35 3.96999,1.66 3.24,3.03 -0.64001,1.19 -5.1,-0.36 -6.38,-0.79 -9.26,-3.13 -19.74,-7.56 -25.85,-13.99 -2.57,-2.7 -3.85,-6.49 -4.92,-10.96 -1.43,-5.97 -3.13,-12.96 -3.13,-20.82 0,-2.62 -0.25,-5.38 0.11,-7.83 0.88,-6.09 3.93,-12.26 6.82,-17.12 0.92,-1.54 2.13,-3.71 3.36,-4.59 0.77,-0.55 1.84,-0.66 2.69,-1.12 4.22999,-2.31 7.92,-5.78 11.52,-8.84 3.75999,-3.19 7.29,-6.33 13.09999,-7.27 5.87001,-0.95 12.51001,-0.4 19.69,-0.67 4.95001,-0.19 9.72,-0.43 14.21001,-1.12 1.91999,-0.29 3.38999,-0.65 5.48999,-0.79 z"
	id="path85" /><path
	d="m 189.32292,311.54593 c 2.01999,-0.47 1.90999,5.79 1.90999,8.28 0,7.11 -0.69,12.11 -1.57,18.58 -0.33999,2.5 -1.04,7.02 -2.57,7.39 -1.69999,0.39 -3.38999,-1.43 -4.47999,-2.24 -1.75,-1.32 -3.42,-2.42 -3.58001,-5.04 -0.16999,-2.74 0.88,-5.5 1.56,-7.72 1.90001,-6.16 4.57,-15.37 8.40001,-19.14 0.09,-0.08 0.18,-0.07 0.33,-0.11 z"
	id="path87"
	style="fill:#ffffff" /><path
	d="m 186.19291,404.42593 c 0.21,1.1 0.46,3.77 -0.78,3.92 -0.97,0.11 -1.7,-1.92 -2.13,-2.91 -2.48,-5.73 -5.06,-11.66 -7.38999,-17.46 -0.95001,-2.38 -1.84001,-4.98 -2.23001,-7.72 0.06,-0.09 0.11,-0.18 0.11,-0.33 0.09,-0.02 0.1,0.04 0.11,0.11 0.07,0 0.15,0 0.22,0 3.1,3.76 5.46,8.17 7.84,12.98 1.70001,3.44 3.38,6.95 4.25,11.41 z"
	id="path89"
	style="fill:#ffffff" /><path
	d="m 177.80291,298.56593 c 0.86,0.83 0.3,2.3 0,3.25 -0.32,0.98 -0.86,2.01 -1.23,2.8 -0.83,1.74 -1.89,3.86 -3.7,4.36 -0.75,-2.99 2.68,-9.64 4.93,-10.41 z"
	id="path91"
	style="fill:#ffffff" /><path
	d="m 154.74291,223.81593 c -0.33,1.47 -1.78999,2.37 -2.9,3.13 -4.37,2.97 -11.1,4.61 -14.22,8.96 -2.15,3.01 -2.89,7.77 -3.58,12.19 -0.70999,4.64 -1.67,9.07 -1.67999,13.99 -0.01,5.77 2.92999,8.54 6.04999,11.42 2.31,2.13 4.39,4.17 6.38,6.71 0.56,0.73 1.58,1.64 1,2.8 -1.79,0.51 -3.5,-0.64 -4.92,-1.57 -1.35999,-0.88 -2.63,-1.98 -3.81,-3.02 -3.32,-2.92 -7.25999,-6.56 -7.72,-12.2 -0.25999,-3.23 0.08,-6.48 0.34,-9.62 0.49001,-5.87 1.29,-11.76 2.57,-17.23 0.76001,-3.23 1.62,-6.87 3.47,-8.73 1.70001,-1.71 5.14001,-3.29 7.72001,-4.37 3.01,-1.25 6.45,-2.77 9.51,-2.91 0.75,-0.03 1.36,-0.03 1.79,0.45 z"
	id="path93" /><path
	d="m 96.332915,261.75593 c 0,0.96 0,1.91 0,2.87 -0.02,-0.93 -0.02,-1.89 0,-2.87 z"
	id="path95" /></g><g
	transform="translate(-114.18293,-181.61593)"
	id="g97" /></svg>